<?xml version="1.0" encoding="UTF-8"?>
<!DOCTYPE svg PUBLIC "-//W3C//DTD SVG 1.1//EN" "http://www.w3.org/Graphics/SVG/1.1/DTD/svg11.dtd">
<!-- Creator: CorelDRAW 2019 (64-Bit) -->
<svg xmlns="http://www.w3.org/2000/svg" xml:space="preserve" width="256px" height="256px" version="1.1" style="shape-rendering:geometricPrecision; text-rendering:geometricPrecision; image-rendering:optimizeQuality; fill-rule:evenodd; clip-rule:evenodd"
viewBox="0 0 77.49 77.49"
 xmlns:xlink="http://www.w3.org/1999/xlink">
 <defs>
  <style type="text/css">
   <![CDATA[
    .fil1 {fill:black}
    .fil0 {fill:#1A1A1A}
    .fil2 {fill:white;fill-rule:nonzero}
   ]]>
  </style>
 </defs>
 <g id="Capa_x0020_1">
  <metadata id="CorelCorpID_0Corel-Layer"/>
  <rect class="fil0" width="77.49" height="77.49" rx="15.74" ry="15.74"/>
  <path class="fil1" d="M77.49 32.22l0 29.53c0,8.66 -7.08,15.74 -15.74,15.74l-18.43 0 -21.63 -21.63 -11.1 -34.22 9.97 0 10.62 10.61 3.51 -10.61 8.9 0 10.62 10.61 3.46 -10.61 9.24 0 10.58 10.58z"/>
  <polygon class="fil2" points="66.91,21.64 55.81,55.86 45.44,55.86 38.89,35.03 32.05,55.86 21.69,55.86 10.59,21.64 20.56,21.64 27.45,43.49 34.69,21.64 43.59,21.64 50.48,43.68 57.67,21.64 "/>
 </g>
</svg>
