<?xml version="1.0" encoding="UTF-8"?>
<!DOCTYPE svg PUBLIC "-//W3C//DTD SVG 1.1//EN" "http://www.w3.org/Graphics/SVG/1.1/DTD/svg11.dtd">
<!-- Creator: CorelDRAW 2019 (64-Bit) -->
<svg xmlns="http://www.w3.org/2000/svg" xml:space="preserve" width="1593px" height="229px" version="1.1" style="shape-rendering:geometricPrecision; text-rendering:geometricPrecision; image-rendering:optimizeQuality; fill-rule:evenodd; clip-rule:evenodd"
viewBox="0 0 1399.09 201.38"
 xmlns:xlink="http://www.w3.org/1999/xlink">
 <defs>
  <style type="text/css">
   <![CDATA[
    .fil0 {fill:#1A1A1A}
   ]]>
  </style>
 </defs>
 <g id="Capa_x0020_1">
  <metadata id="CorelCorpID_0Corel-Layer"/>
  <path class="fil0" d="M481.75 196.76l36.63 0 0 -65.89c42.76,0 33.07,-3.4 77.32,50.84 18.59,22.8 40.89,15.05 92.58,15.05 13.67,-48.43 13.7,-36.61 115.81,-36.61l14.84 36.24 40.23 0.24 -85.47 -193.31c-50.06,-2.33 -37.64,-10.36 -80.47,90.19 -13.46,31.6 -28.54,66.34 -43.03,95.27l-53.84 -61.14c76.24,-30.7 56.37,-124.9 -26.74,-124.9l-87.84 0 -0.02 194.02zm-406.26 0l27.17 0 42.38 -114.64 42.79 114.58c40.92,0.08 29.65,8.86 65.21,-93.24 11.66,-33.47 25.55,-66.49 35.7,-100.72l-41.08 0.07c-5.83,21.09 -14.28,46.54 -20.64,67.29 -5.62,18.3 -14.54,55.25 -25.8,66.27l-44.41 -132.7c-26.31,-1.6 -23.02,-5.34 -33.82,28.14l-34.14 104.56c-5.77,-5.44 -2.1,-0.49 -6.54,-7.87l-31.44 -93.93c-10.41,-32.33 0.07,-34.83 -50.87,-30.77l61.92 169.95c4.04,11.68 2.67,17.41 13.57,23.01zm1152.93 0l36.63 0 0 -65.89 21.95 0c41.49,0 32.65,68.51 98.79,65.89l13.3 -1.06 -56.07 -68.06c76.23,-30.7 56.37,-124.9 -26.74,-124.9l-87.85 0 -0.01 194.02zm-175.03 -0.66l144.39 -0.4 -0.13 -33.94 -108.29 -0.98 1.14 -43.06 103.58 0.05 0 -34.51 -104.73 0 0.01 -45.31 107.69 -0.12 0.81 -33.67 -144.47 -1.42 0 193.36zm-743 0l144.39 -0.4 -0.13 -33.94 -108.31 -0.98 1.15 -43.06 102.25 0.05 1.34 -34.51 -104.74 0 0.02 -45.31 107.68 -0.12 0.81 -33.67 -144.46 -1.42 0 193.36zm723.41 -25.6l-20.77 -21.59c-25.7,10.28 -37.98,26.93 -76.6,14.55 -53.72,-17.21 -54.32,-99.18 -5.27,-121.35 35.95,-16.25 53.65,-0.22 78.11,11.07 7.96,-6.57 16.05,-15.18 22.32,-25.92 -30.33,-19.49 -63.61,-38.73 -112.37,-18.93 -78.32,31.79 -81.33,152.95 -2.25,185.08 40.33,16.39 101.2,6.88 116.83,-22.91zm231.05 -72.6c34.63,0 85.73,10.3 87.59,-29.59 1.91,-40.84 -49.6,-31.07 -85.86,-31.07l-1.73 60.66zm-746.66 0c34.63,0 85.72,10.3 87.59,-29.59 1.91,-40.84 -49.61,-31.07 -85.86,-31.07l-1.73 60.66zm202.38 27.75l66.61 -0.13 -32.7 -78.91c-9.63,17.37 -32.17,61.26 -33.91,79.04z"/>
 </g>
</svg>
