<?xml version="1.0" encoding="UTF-8"?>
<!DOCTYPE svg PUBLIC "-//W3C//DTD SVG 1.1//EN" "http://www.w3.org/Graphics/SVG/1.1/DTD/svg11.dtd">
<!-- Creator: CorelDRAW 2019 (64-Bit) -->
<svg xmlns="http://www.w3.org/2000/svg" xml:space="preserve" width="2005px" height="267px" version="1.1" style="shape-rendering:geometricPrecision; text-rendering:geometricPrecision; image-rendering:optimizeQuality; fill-rule:evenodd; clip-rule:evenodd"
viewBox="0 0 1935.1 257.73"
 xmlns:xlink="http://www.w3.org/1999/xlink">
 <defs>
  <style type="text/css">
   <![CDATA[
    .fil0 {fill:white;fill-rule:nonzero}
   ]]>
  </style>
 </defs>
 <g id="Capa_x0020_1">
  <metadata id="CorelCorpID_0Corel-Layer"/>
  <polygon class="fil0" points="407.84,4.96 327.47,252.77 252.42,252.77 204.98,101.96 155.42,252.77 80.36,252.77 0,4.96 72.22,4.96 122.14,163.21 174.53,4.96 238.97,4.96 288.89,164.62 340.93,4.96 "/>
  <polygon id="1" class="fil0" points="631.94,198.61 631.94,252.77 432.97,252.77 432.97,4.96 627.33,4.96 627.33,59.12 502.36,59.12 502.36,100.9 612.46,100.9 612.46,153.29 502.36,153.29 502.36,198.61 "/>
  <path id="2" class="fil0" d="M779.21 186.92l-38.23 0 0 65.85 -70.1 0 0 -247.81 113.29 0c22.42,0 41.89,3.71 58.41,11.15 16.52,7.43 29.27,18.05 38.24,31.86 8.96,13.81 13.45,30.03 13.45,48.68 0,17.94 -4.19,33.57 -12.57,46.91 -8.38,13.33 -20.36,23.78 -35.93,31.33l53.46 77.88 -75.06 0 -44.96 -65.85zm44.25 -90.27c0,-11.57 -3.66,-20.53 -10.97,-26.91 -7.32,-6.37 -18.17,-9.56 -32.57,-9.56l-38.94 0 0 72.58 38.94 0c14.4,0 25.25,-3.13 32.57,-9.38 7.31,-6.26 10.97,-15.17 10.97,-26.73z"/>
  <path id="3" class="fil0" d="M1098.89 204.63l-104.79 0 -19.47 48.14 -71.51 0 109.39 -247.81 69.04 0 109.75 247.81 -72.93 0 -19.48 -48.14zm-20.53 -51.69l-31.86 -79.3 -31.86 79.3 63.72 0z"/>
  <path id="4" class="fil0" d="M1331.13 257.73c-25.96,0 -49.26,-5.49 -69.91,-16.46 -20.66,-10.98 -36.88,-26.26 -48.68,-45.85 -11.8,-19.59 -17.7,-41.77 -17.7,-66.56 0,-24.78 5.9,-46.96 17.7,-66.55 11.8,-19.59 28.02,-34.87 48.68,-45.85 20.65,-10.97 43.95,-16.46 69.91,-16.46 22.66,0 43.08,4.01 61.25,12.04 18.17,8.02 33.28,19.59 45.32,34.69l-44.61 40.36c-16.05,-19.35 -35.52,-29.03 -58.41,-29.03 -13.46,0 -25.44,2.95 -35.94,8.85 -10.5,5.9 -18.64,14.22 -24.43,24.96 -5.78,10.74 -8.67,23.07 -8.67,36.99 0,13.93 2.89,26.26 8.67,37 5.79,10.74 13.93,19.06 24.43,24.96 10.5,5.9 22.48,8.85 35.94,8.85 22.89,0 42.36,-9.68 58.41,-29.03l44.61 40.36c-12.04,15.1 -27.15,26.67 -45.32,34.69 -18.17,8.03 -38.59,12.04 -61.25,12.04z"/>
  <polygon id="5" class="fil0" points="1667.81,198.61 1667.81,252.77 1468.85,252.77 1468.85,4.96 1663.21,4.96 1663.21,59.12 1538.24,59.12 1538.24,100.9 1648.34,100.9 1648.34,153.29 1538.24,153.29 1538.24,198.61 "/>
  <path id="6" class="fil0" d="M1815.09 186.92l-38.24 0 0 65.85 -70.09 0 0 -247.81 113.28 0c22.43,0 41.9,3.71 58.42,11.15 16.52,7.43 29.26,18.05 38.23,31.86 8.97,13.81 13.46,30.03 13.46,48.68 0,17.94 -4.19,33.57 -12.57,46.91 -8.38,13.33 -20.36,23.78 -35.94,31.33l53.46 77.88 -75.05 0 -44.96 -65.85zm44.25 -90.27c0,-11.57 -3.66,-20.53 -10.97,-26.91 -7.32,-6.37 -18.18,-9.56 -32.57,-9.56l-38.95 0 0 72.58 38.95 0c14.39,0 25.25,-3.13 32.57,-9.38 7.31,-6.26 10.97,-15.17 10.97,-26.73z"/>
 </g>
</svg>
